<svg width="301" height="40" viewBox="0 0 301 40" fill="none" xmlns="http://www.w3.org/2000/svg">
<g clip-path="url(#clip0_339_12)">
<path d="M39.5068 40.0006H0.0342752C0.0249274 39.869 0.00623185 39.7375 0.00623185 39.6091C0.00623185 30.6771 0.00623185 21.7482 0 12.8161C0 12.5436 0.0934778 12.3933 0.317825 12.2493C6.66185 8.2123 13.0028 4.16908 19.3374 0.119598C19.5867 -0.0401261 19.7519 -0.0369942 20.0011 0.119598C26.4075 4.17534 32.8201 8.2217 39.2358 12.2618C39.4476 12.3965 39.538 12.5311 39.538 12.7911C39.5318 21.7325 39.5318 30.6771 39.5318 39.6185C39.5318 39.7406 39.5193 39.8628 39.5131 40.0006H39.5068ZM20.2753 20.3733C20.2691 20.4641 20.2598 20.5142 20.2598 20.5643C20.2535 24.2505 20.2504 27.9398 20.2379 31.626C20.2379 31.8578 20.3408 31.9549 20.5153 32.0551C22.9176 33.4394 25.32 34.8268 27.7224 36.2142C27.8128 36.2674 27.9125 36.3081 28.0246 36.3614V20.3764H20.2785L20.2753 20.3733ZM2.45847 20.3733C2.44912 20.5142 2.43666 20.6238 2.43666 20.7334C2.42731 24.3476 2.42419 27.9617 2.40861 31.5759C2.40861 31.8327 2.50832 31.9486 2.71086 32.0645C5.09454 33.4331 7.47511 34.8111 9.85568 36.186C9.9585 36.2455 10.0676 36.2956 10.2015 36.3645V20.3764H2.45847V20.3733ZM19.0632 19.0861V3.20134C18.923 3.28277 18.8171 3.33914 18.7143 3.40491C16.4147 4.87062 14.1214 6.34259 11.8156 7.79576C11.5601 7.95862 11.4791 8.134 11.4791 8.4284C11.4884 11.8296 11.4853 15.2308 11.4853 18.632V19.0861H19.0601H19.0632ZM28.7039 19.5997H37.6778V19.2427C37.6778 17.4419 37.6716 15.641 37.684 13.8402C37.684 13.5615 37.5843 13.4206 37.36 13.2796C34.5868 11.5415 31.8167 9.79388 29.0467 8.04944C28.947 7.98681 28.8379 7.93043 28.7008 7.85214V19.5997H28.7039ZM10.4539 19.3022V8.01813C10.3542 8.06824 10.2857 8.09642 10.2265 8.134C7.5125 9.86905 4.79853 11.6072 2.08144 13.336C1.8789 13.4644 1.84774 13.621 1.84774 13.834C1.85398 15.522 1.84774 17.207 1.85086 18.895C1.85086 19.0266 1.86644 19.1581 1.87579 19.299H10.4539V19.3022ZM28.4827 38.1998C28.3736 38.1152 28.3394 38.0839 28.2988 38.0588C25.4976 36.3927 22.6933 34.7234 19.8858 33.0698C19.7737 33.004 19.5493 33.0322 19.4278 33.1042C16.7294 34.7265 14.0341 36.3582 11.342 37.9899C11.2672 38.0338 11.2018 38.0964 11.0678 38.1998H28.4827ZM1.87267 38.1841H10.5661C10.5723 38.1622 10.5786 38.1403 10.5848 38.1183C7.69634 36.4021 4.80788 34.689 1.87267 32.9445V38.1841ZM37.6622 32.9508C34.6834 34.7015 31.7669 36.4177 28.7631 38.1841H37.6622V32.9508Z" fill="white"/>
</g>
<path fill-rule="evenodd" clip-rule="evenodd" d="M46.2021 36.9047C51.8948 36.9047 51.9216 33.0857 51.9216 27.4287V19.6837H54.3754V36.5121H58.9974V16.6678H47.6833V27.4198C47.6833 31.4886 47.6833 33.2107 46.2021 33.2107V36.8958V36.9047ZM69.8029 36.5121V33.5051H64.8418V27.045H69.6334V24.038H64.8418V19.6926H69.8029V16.6856H60.2198V36.521H69.8029V36.5121ZM75.2101 36.5121V27.0361H77.6639V36.5121H82.2859V16.6678H77.6639V24.0202H75.2101V16.6678H70.5881V36.5032H75.2101V36.5121ZM90.6198 28.7939L90.593 32.1667C90.593 32.9787 90.3432 33.7282 89.3438 33.7282C88.398 33.7282 88.1482 32.9787 88.1482 32.1667V21.0221C88.1482 20.2101 88.398 19.4606 89.3438 19.4606C90.3432 19.4606 90.593 20.2101 90.593 21.0221V23.7525H95.215V21.5753C95.215 17.2835 92.7077 16.2841 89.3349 16.2841C86.2655 16.2841 83.5083 17.5422 83.5083 22.0839V31.1138C83.5083 35.6555 86.2655 36.9136 89.3349 36.9136C93.2342 36.9136 95.215 35.1291 95.215 31.4172V28.8028H90.6198V28.7939ZM98.6949 19.6837V36.5121H103.317V19.6748H106.547V16.6678H95.456V19.6748H98.686L98.6949 19.6837ZM111.901 36.5121V28.8474H113.605C116.335 28.8474 118.985 27.5358 118.985 24.5555V20.9329C118.985 17.5065 116.621 16.6678 112.936 16.6678H107.279V36.5032H111.901V36.5121ZM111.901 19.5142H112.623C114.238 19.5142 114.354 20.4332 114.354 22.771C114.354 25.1088 114.247 26.001 112.623 26.001H111.901V19.5052V19.5142ZM131.906 22.075C131.906 17.5333 129.122 16.2752 126.052 16.2752C122.983 16.2752 120.199 17.5333 120.199 22.075V31.1049C120.199 35.6466 122.983 36.9047 126.052 36.9047C129.122 36.9047 131.906 35.6466 131.906 31.1049V22.075ZM124.83 21.0132C124.83 20.2012 125.08 19.4517 126.061 19.4517C127.043 19.4517 127.284 20.2012 127.284 21.0132V32.1578C127.284 32.9697 127.034 33.7193 126.061 33.7193C125.089 33.7193 124.83 32.9697 124.83 32.1578V21.0132ZM135.136 11.9565C135.136 14.2943 136.867 15.6595 139.062 15.6595C141.453 15.6595 143.3 14.4906 143.3 11.9565H141.685C141.462 13.0987 140.4 13.4913 139.347 13.4913C138.232 13.4913 136.92 13.2682 136.697 11.9565H135.136ZM145.834 36.5032V16.6678H139.481L136.974 30.7658H136.92V16.6678H133.128V36.5032H139.008L141.988 20.2637H142.042V36.5032H145.834ZM151.687 36.5032V26.4472H151.741L154.525 36.5032H159.093L155.97 25.4121L159.067 16.6589H154.668L151.741 25.662H151.687V16.6589H147.065V36.4943H151.687V36.5032ZM171.193 22.075C171.193 17.5333 168.409 16.2752 165.339 16.2752C162.27 16.2752 159.486 17.5333 159.486 22.075V31.1049C159.486 35.6466 162.27 36.9047 165.339 36.9047C168.409 36.9047 171.193 35.6466 171.193 31.1049V22.075ZM164.117 21.0132C164.117 20.2012 164.367 19.4517 165.348 19.4517C166.33 19.4517 166.58 20.2012 166.58 21.0132V32.1578C166.58 32.9697 166.33 33.7193 165.348 33.7193C164.367 33.7193 164.117 32.9697 164.117 32.1578V21.0132ZM176.1 19.7908H176.154L178.831 36.5121H182.899L185.576 19.7908H185.63V36.5121H189.806V16.6678H183.149L181.195 30.7658H181.142L179.188 16.6678H172.388V36.5032H176.091V19.7908H176.1ZM195.632 36.5121V19.6748H198.086V36.5032H202.708V16.6678H191.001V36.5032H195.632V36.5121ZM203.261 36.9047C208.945 36.9047 208.981 33.0857 208.981 27.4287V19.6837H211.435V36.5121H216.057V16.6678H204.742V27.4198C204.742 31.4886 204.742 33.2107 203.261 33.2107V36.8958V36.9047ZM226.862 36.5121V33.5051H221.901V27.045H226.693V24.038H221.901V19.6926H226.862V16.6856H217.279V36.521H226.862V36.5121ZM232.269 36.5121V26.4561H232.323L235.107 36.5121H239.675L236.552 25.4211L239.648 16.6678H235.25L232.323 25.6709H232.269V16.6678H227.647V36.5032H232.269V36.5121ZM242.825 19.6837V36.5121H247.447V19.6748H250.677V16.6678H239.586V19.6748H242.816L242.825 19.6837ZM252.355 16.6767L248.982 36.5121H252.881L253.63 31.6402H256.138L256.664 36.5121H261.259L258.699 16.6767H252.346H252.355ZM254.139 28.6333L254.951 19.7997H255.005L255.817 28.6333H254.148H254.139ZM262.277 36.521H270.325V39.5369H274.59V33.514H273.921V16.6678H269.299V33.4962H266.908V16.6678H262.286V36.5032L262.277 36.521ZM287.912 36.521V16.6678H281.559L279.052 30.7658H278.998V16.6678H275.206V36.5032H281.086L284.066 20.2637H284.12V36.5032H287.912V36.521ZM296.273 36.521H300.895V16.6678H296.246C291.838 16.6678 289.224 17.1139 289.224 21.2898C289.224 23.7703 290.259 25.3854 292.766 25.8047V25.8583C290.535 25.9118 289.224 26.7506 289.224 29.588V33.7371C289.224 34.5134 289.081 35.6912 288.528 36.4943H293.185C293.738 35.6823 293.854 34.5134 293.854 33.7371V29.5345C293.854 28.1425 294.693 27.4465 295.523 27.4465H296.273V36.5032V36.521ZM296.273 19.5231V24.618C294.185 24.618 293.846 23.922 293.846 22.0572C293.846 20.1923 294.149 19.5231 296.273 19.5231Z" fill="white"/>
<defs>
<clipPath id="clip0_339_12">
<rect width="39.5349" height="40" fill="white"/>
</clipPath>
</defs>
</svg>
