<svg width="338" height="45" viewBox="0 0 338 45" fill="none" xmlns="http://www.w3.org/2000/svg">
<g clip-path="url(#clip0_1_769)">
<path d="M44.2763 44.8295H0.038413C0.0279368 44.6821 0.00698419 44.5347 0.00698419 44.3908C0.00698419 34.3804 0.00698419 24.3736 0 14.3632C0 14.0578 0.104763 13.8894 0.356194 13.7279C7.4661 9.2036 14.5725 4.67227 21.6719 0.133919C21.9513 -0.0450881 22.1364 -0.0415782 22.4158 0.133919C29.5955 4.67929 36.7822 9.21413 43.9725 13.742C44.2099 13.8929 44.3112 14.0438 44.3112 14.3351C44.3042 24.356 44.3042 34.3804 44.3042 44.4013C44.3042 44.5382 44.2902 44.6751 44.2832 44.8295H44.2763ZM22.7231 22.8327C22.7161 22.9345 22.7056 22.9906 22.7056 23.0468C22.6986 27.178 22.6951 31.3127 22.6812 35.4439C22.6812 35.7037 22.7964 35.8125 22.9919 35.9248C25.6844 37.4762 28.3768 39.0311 31.0692 40.586C31.1704 40.6456 31.2822 40.6913 31.4079 40.7509V22.8362H22.7266L22.7231 22.8327ZM2.75526 22.8327C2.74479 22.9906 2.73082 23.1135 2.73082 23.2363C2.72034 27.2868 2.71685 31.3373 2.69939 35.3878C2.69939 35.6756 2.81114 35.8054 3.03812 35.9353C5.70957 37.4691 8.37753 39.0135 11.0455 40.5544C11.1607 40.6211 11.283 40.6772 11.4331 40.7545V22.8362H2.75526V22.8327ZM21.3646 21.3901V3.5877C21.2075 3.67896 21.0888 3.74214 20.9735 3.81585C18.3964 5.4585 15.8262 7.10817 13.242 8.73678C12.9557 8.9193 12.8649 9.11586 12.8649 9.44579C12.8754 13.2576 12.8719 17.0694 12.8719 20.8812V21.3901H21.3611H21.3646ZM32.1692 21.9657H42.2264V21.5656C42.2264 19.5474 42.2194 17.5292 42.2334 15.511C42.2334 15.1986 42.1216 15.0406 41.8702 14.8827C38.7622 12.9347 35.6578 10.9761 32.5533 9.02109C32.4416 8.95089 32.3193 8.88771 32.1657 8.79996V21.9657H32.1692ZM11.716 21.6323V8.98599C11.6042 9.04215 11.5274 9.07374 11.4611 9.11586C8.41944 11.0604 5.37783 13.0084 2.33272 14.9459C2.10573 15.0898 2.07081 15.2653 2.07081 15.5039C2.0778 17.3958 2.07081 19.2842 2.0743 21.176C2.0743 21.3234 2.09176 21.4708 2.10224 21.6288H11.716V21.6323ZM31.9212 42.8113C31.799 42.7165 31.7606 42.6814 31.7152 42.6533C28.5758 40.786 25.4329 38.9152 22.2865 37.062C22.1608 36.9883 21.9094 37.0199 21.7732 37.1006C18.7491 38.9188 15.7284 40.7474 12.7112 42.5761C12.6274 42.6253 12.5541 42.6954 12.4039 42.8113H31.9212ZM2.09875 42.7937H11.8417C11.8487 42.7692 11.8557 42.7446 11.8626 42.72C8.62547 40.7966 5.3883 38.8766 2.09875 36.9216V42.7937ZM42.2089 36.9286C38.8705 38.8907 35.6019 40.8141 32.2355 42.7937H42.2089V36.9286Z" fill="#303030"/>
</g>
<path fill-rule="evenodd" clip-rule="evenodd" d="M51.7798 41.3599C58.1598 41.3599 58.1898 37.0799 58.1898 30.7399V22.0599H60.9398V40.9199H66.1198V18.6799H53.4398V30.7299C53.4398 35.2899 53.4398 37.2199 51.7798 37.2199V41.3499V41.3599ZM78.2298 40.9199V37.5499H72.6698V30.3099H78.0398V26.9399H72.6698V22.0699H78.2298V18.6999H67.4898V40.9299H78.2298V40.9199ZM84.2898 40.9199V30.2999H87.0398V40.9199H92.2198V18.6799H87.0398V26.9199H84.2898V18.6799H79.1098V40.9099H84.2898V40.9199ZM101.56 32.2699L101.53 36.0499C101.53 36.9599 101.25 37.7999 100.13 37.7999C99.0698 37.7999 98.7898 36.9599 98.7898 36.0499V23.5599C98.7898 22.6499 99.0698 21.8099 100.13 21.8099C101.25 21.8099 101.53 22.6499 101.53 23.5599V26.6199H106.71V24.1799C106.71 19.3699 103.9 18.2499 100.12 18.2499C96.6798 18.2499 93.5898 19.6599 93.5898 24.7499V34.8699C93.5898 39.9599 96.6798 41.3699 100.12 41.3699C104.49 41.3699 106.71 39.3699 106.71 35.2099V32.2799H101.56V32.2699ZM110.61 22.0599V40.9199H115.79V22.0499H119.41V18.6799H106.98V22.0499H110.6L110.61 22.0599ZM125.41 40.9199V32.3299H127.32C130.38 32.3299 133.35 30.8599 133.35 27.5199V23.4599C133.35 19.6199 130.7 18.6799 126.57 18.6799H120.23V40.9099H125.41V40.9199ZM125.41 21.8699H126.22C128.03 21.8699 128.16 22.8999 128.16 25.5199C128.16 28.1399 128.04 29.1399 126.22 29.1399H125.41V21.8599V21.8699ZM147.83 24.7399C147.83 19.6499 144.71 18.2399 141.27 18.2399C137.83 18.2399 134.71 19.6499 134.71 24.7399V34.8599C134.71 39.9499 137.83 41.3599 141.27 41.3599C144.71 41.3599 147.83 39.9499 147.83 34.8599V24.7399ZM139.9 23.5499C139.9 22.6399 140.18 21.7999 141.28 21.7999C142.38 21.7999 142.65 22.6399 142.65 23.5499V36.0399C142.65 36.9499 142.37 37.7899 141.28 37.7899C140.19 37.7899 139.9 36.9499 139.9 36.0399V23.5499ZM151.45 13.3999C151.45 16.0199 153.39 17.5499 155.85 17.5499C158.53 17.5499 160.6 16.2399 160.6 13.3999H158.79C158.54 14.6799 157.35 15.1199 156.17 15.1199C154.92 15.1199 153.45 14.8699 153.2 13.3999H151.45ZM163.44 40.9099V18.6799H156.32L153.51 34.4799H153.45V18.6799H149.2V40.9099H155.79L159.13 22.7099H159.19V40.9099H163.44ZM170 40.9099V29.6399H170.06L173.18 40.9099H178.3L174.8 28.4799L178.27 18.6699H173.34L170.06 28.7599H170V18.6699H164.82V40.8999H170V40.9099ZM191.86 24.7399C191.86 19.6499 188.74 18.2399 185.3 18.2399C181.86 18.2399 178.74 19.6499 178.74 24.7399V34.8599C178.74 39.9499 181.86 41.3599 185.3 41.3599C188.74 41.3599 191.86 39.9499 191.86 34.8599V24.7399ZM183.93 23.5499C183.93 22.6399 184.21 21.7999 185.31 21.7999C186.41 21.7999 186.69 22.6399 186.69 23.5499V36.0399C186.69 36.9499 186.41 37.7899 185.31 37.7899C184.21 37.7899 183.93 36.9499 183.93 36.0399V23.5499ZM197.36 22.1799H197.42L200.42 40.9199H204.98L207.98 22.1799H208.04V40.9199H212.72V18.6799H205.26L203.07 34.4799H203.01L200.82 18.6799H193.2V40.9099H197.35V22.1799H197.36ZM219.25 40.9199V22.0499H222V40.9099H227.18V18.6799H214.06V40.9099H219.25V40.9199ZM227.8 41.3599C234.17 41.3599 234.21 37.0799 234.21 30.7399V22.0599H236.96V40.9199H242.14V18.6799H229.46V30.7299C229.46 35.2899 229.46 37.2199 227.8 37.2199V41.3499V41.3599ZM254.25 40.9199V37.5499H248.69V30.3099H254.06V26.9399H248.69V22.0699H254.25V18.6999H243.51V40.9299H254.25V40.9199ZM260.31 40.9199V29.6499H260.37L263.49 40.9199H268.61L265.11 28.4899L268.58 18.6799H263.65L260.37 28.7699H260.31V18.6799H255.13V40.9099H260.31V40.9199ZM272.14 22.0599V40.9199H277.32V22.0499H280.94V18.6799H268.51V22.0499H272.13L272.14 22.0599ZM282.82 18.6899L279.04 40.9199H283.41L284.25 35.4599H287.06L287.65 40.9199H292.8L289.93 18.6899H282.81H282.82ZM284.82 32.0899L285.73 22.1899H285.79L286.7 32.0899H284.83H284.82ZM293.94 40.9299H302.96V44.3099H307.74V37.5599H306.99V18.6799H301.81V37.5399H299.13V18.6799H293.95V40.9099L293.94 40.9299ZM322.67 40.9299V18.6799H315.55L312.74 34.4799H312.68V18.6799H308.43V40.9099H315.02L318.36 22.7099H318.42V40.9099H322.67V40.9299ZM332.04 40.9299H337.22V18.6799H332.01C327.07 18.6799 324.14 19.1799 324.14 23.8599C324.14 26.6399 325.3 28.4499 328.11 28.9199V28.9799C325.61 29.0399 324.14 29.9799 324.14 33.1599V37.8099C324.14 38.6799 323.98 39.9999 323.36 40.8999H328.58C329.2 39.9899 329.33 38.6799 329.33 37.8099V33.0999C329.33 31.5399 330.27 30.7599 331.2 30.7599H332.04V40.9099V40.9299ZM332.04 21.8799V27.5899C329.7 27.5899 329.32 26.8099 329.32 24.7199C329.32 22.6299 329.66 21.8799 332.04 21.8799Z" fill="#303030"/>
<defs>
<clipPath id="clip0_1_769">
<rect width="44.3077" height="44.829" fill="white"/>
</clipPath>
</defs>
</svg>
